<svg xmlns="http://www.w3.org/2000/svg" width="707" height="353" viewBox="0 0 707 353">
<g>
<path d="M 465.18 248.99 C459.87,250.50 444.47,251.04 437.64,249.97 C422.79,247.63 411.10,237.87 411.02,227.75 L 411.00 225.00 L 420.84 225.00 C430.21,225.00 430.73,225.11 431.75,227.36 C433.09,230.30 436.36,231.00 448.66,231.00 C463.02,231.00 467.30,228.39 468.61,218.82 C469.40,213.07 468.04,212.10 463.75,215.37 C461.96,216.74 458.25,218.84 455.50,220.03 C451.23,221.89 449.30,222.13 442.29,221.66 C427.64,220.67 417.29,213.44 410.30,199.30 C406.99,192.59 406.54,190.75 406.17,182.45 C405.48,166.45 410.68,154.41 421.96,145.94 C428.42,141.09 435.22,139.00 444.60,139.00 C452.12,139.00 458.26,140.91 464.11,145.08 C467.67,147.61 469.00,146.90 469.00,142.44 L 469.00 139.00 L 478.39 139.00 C486.04,139.00 487.90,139.29 488.39,140.58 C488.73,141.45 489.00,160.36 489.00,182.61 C489.00,219.90 488.85,223.47 487.08,228.50 C486.03,231.50 484.22,235.29 483.07,236.91 C480.44,240.59 470.06,247.60 465.18,248.99 ZM 593.28 219.01 C587.01,221.37 571.41,222.54 565.00,221.13 C546.31,217.01 535.07,201.75 535.02,180.43 C534.98,160.95 541.61,149.29 556.77,142.18 C562.07,139.70 563.48,139.50 575.50,139.50 C586.72,139.50 589.35,139.82 594.68,141.85 C605.89,146.10 612.27,153.57 615.37,166.06 C618.65,179.30 616.43,197.09 610.36,206.12 C606.64,211.67 600.52,216.28 593.28,219.01 ZM 236.42 208.50 L 232.50 220.50 L 222.33 220.78 C216.74,220.94 211.91,220.66 211.60,220.16 C211.29,219.66 213.97,210.98 217.55,200.88 C221.14,190.77 226.05,176.65 228.48,169.50 C230.90,162.35 234.44,152.00 236.35,146.50 C238.25,141.00 240.82,133.00 242.06,128.73 L 244.30 120.96 L 261.86 121.23 L 279.41 121.50 L 281.55 127.50 C282.72,130.80 284.92,136.88 286.44,141.00 C287.96,145.12 290.10,151.43 291.20,155.00 C294.41,165.45 300.34,183.22 306.78,201.66 C311.09,214.01 312.47,219.13 311.69,219.91 C311.07,220.53 306.79,221.00 301.78,221.00 C293.58,221.00 292.89,220.84 292.01,218.75 C290.92,216.14 283.17,194.01 272.24,162.25 C264.79,140.61 264.50,140.00 261.87,140.00 C259.33,140.00 258.97,140.59 256.20,149.25 C254.57,154.34 250.34,167.05 246.79,177.50 C243.24,187.95 238.58,201.90 236.42,208.50 ZM 372.77 218.62 C368.46,220.81 365.86,221.36 358.50,221.62 C340.20,222.28 327.96,215.17 323.38,201.22 C321.72,196.18 321.50,192.19 321.50,167.50 L 321.50 139.50 L 329.85 139.21 C334.89,139.03 338.72,139.35 339.52,140.02 C340.54,140.86 340.92,146.83 341.17,165.81 C341.49,190.01 341.55,190.59 344.00,194.97 C347.36,200.97 349.74,201.97 360.67,201.99 C369.11,202.00 370.09,201.79 372.95,199.39 C378.39,194.81 378.46,194.40 379.00,166.00 L 379.50 139.50 L 398.50 139.50 L 398.50 220.50 L 389.24 220.79 C380.11,221.07 379.97,221.04 379.00,218.51 L 378.03 215.95 ZM 641.76 215.75 L 637.94 221.00 L 626.47 221.00 C617.64,221.00 615.00,220.70 615.00,219.68 C615.00,218.95 618.90,212.77 623.66,205.93 C628.43,199.09 633.27,192.15 634.41,190.50 C635.56,188.84 637.79,185.81 639.36,183.76 C640.93,181.70 642.00,179.45 641.74,178.76 C641.47,178.07 636.78,170.75 631.32,162.50 C617.05,140.97 616.56,140.10 618.24,139.46 C619.01,139.17 624.32,139.06 630.05,139.21 L 640.46 139.50 L 647.98 150.66 C654.14,159.81 655.76,161.62 656.91,160.66 C658.70,159.19 666.11,147.68 668.45,142.74 L 670.23 139.00 L 680.53 139.00 C693.83,139.00 694.45,139.23 692.33,143.35 C691.44,145.08 687.69,151.00 683.99,156.50 C673.76,171.76 670.00,177.91 670.00,179.41 C670.00,180.16 672.01,183.52 674.48,186.86 C684.04,199.85 696.18,218.90 695.55,219.92 C695.14,220.59 690.66,221.00 683.90,221.00 L 672.92 221.00 L 670.21 216.40 C665.18,207.88 657.39,196.63 656.26,196.25 C655.63,196.04 652.98,199.17 650.36,203.19 C647.73,207.21 643.87,212.86 641.76,215.75 ZM 101.76 220.77 C97.11,223.85 89.03,224.73 84.45,222.65 C77.64,219.56 72.27,209.36 73.42,201.70 C74.05,197.51 80.72,185.42 92.14,167.76 C94.54,164.06 100.30,154.97 104.95,147.57 C112.48,135.58 113.84,133.95 117.45,132.58 C124.98,129.72 127.63,129.62 133.93,131.97 C141.94,134.97 145.47,139.83 145.47,147.89 C145.47,152.96 144.84,154.58 138.98,164.81 C135.42,171.02 128.90,181.70 124.50,188.53 C120.10,195.35 114.06,204.82 111.07,209.57 C107.63,215.05 104.23,219.14 101.76,220.77 ZM 39.50 222.11 C27.36,227.71 13.90,218.57 13.79,204.64 C13.74,198.53 15.44,194.16 20.32,187.78 C22.31,185.18 25.29,180.46 26.94,177.28 C28.59,174.10 35.03,163.40 41.26,153.50 C50.78,138.36 53.19,135.20 56.40,133.61 C67.52,128.13 81.27,132.48 84.11,142.37 C85.90,148.64 85.15,153.97 81.45,161.23 C77.11,169.74 69.34,182.78 66.99,185.50 C66.04,186.60 61.32,193.80 56.51,201.50 C46.25,217.92 44.81,219.66 39.50,222.11 ZM 516.03 168.00 L 515.50 220.50 L 506.25 220.79 L 497.00 221.08 L 497.02 179.79 L 497.02 178.16 C497.04,143.32 497.04,135.83 500.63,130.99 C501.67,129.59 503.00,128.41 504.73,126.86 C509.19,122.84 515.36,121.00 524.43,121.00 C529.12,121.00 529.84,121.27 530.37,123.25 C531.44,127.25 531.05,138.55 529.80,139.80 C529.12,140.48 525.87,141.00 522.30,141.00 C516.33,141.00 516.00,141.13 516.00,143.38 C516.00,146.82 517.82,147.85 524.53,148.19 L 530.50 148.50 L 530.79 156.98 C531.15,167.15 530.45,168.00 521.83,168.00 ZM 564.50 200.60 C566.15,201.33 571.12,201.94 575.54,201.96 C581.94,201.99 584.48,201.54 588.02,199.75 C594.56,196.44 598.08,190.82 598.74,182.64 C599.72,170.50 595.02,161.49 586.49,159.12 C581.24,157.66 568.41,157.82 564.04,159.40 C555.56,162.46 551.09,179.62 555.92,190.55 C558.55,196.49 560.57,198.86 564.50,200.60 ZM 436.50 200.58 C440.11,202.19 453.75,202.42 457.68,200.94 C461.87,199.36 466.89,194.07 468.00,190.04 C469.66,184.09 469.18,172.00 467.12,167.50 C463.79,160.25 458.89,158.00 446.50,158.03 C439.05,158.04 432.93,160.11 429.78,163.66 C425.23,168.78 423.53,182.55 426.55,189.78 C428.48,194.40 432.56,198.82 436.50,200.58 ZM 190.60 181.14 C179.27,189.46 162.04,179.12 162.04,164.00 C162.04,153.11 170.93,144.03 181.62,144.01 C185.02,144.00 192.23,146.87 194.85,149.28 C198.10,152.27 200.95,158.70 200.98,163.10 C201.02,170.56 198.11,175.62 190.60,181.14 ZM 158.13 222.58 C149.19,226.35 137.41,221.50 134.07,212.68 C132.57,208.73 132.74,199.56 134.39,195.62 C136.65,190.19 141.35,187.57 149.54,187.16 C158.46,186.71 162.87,188.45 166.91,194.04 C170.66,199.21 171.51,203.36 170.00,209.09 C168.65,214.19 163.13,220.46 158.13,222.58 Z" fill="rgb(238,50,35)"/>
<path d="M 0.00 176.50 L 0.00 0.00 L 353.50 0.00 L 707.00 0.00 L 707.00 176.50 L 707.00 353.00 L 353.50 353.00 L 0.00 353.00 L 0.00 176.50 ZM 465.18 248.99 C470.06,247.60 480.44,240.59 483.07,236.91 C484.22,235.29 486.03,231.50 487.08,228.50 C488.85,223.47 489.00,219.90 489.00,182.61 C489.00,160.36 488.73,141.45 488.39,140.58 C487.90,139.29 486.04,139.00 478.39,139.00 L 469.00 139.00 L 469.00 142.44 C469.00,146.90 467.67,147.61 464.11,145.08 C458.26,140.91 452.12,139.00 444.60,139.00 C435.22,139.00 428.42,141.09 421.96,145.94 C410.68,154.41 405.48,166.45 406.17,182.45 C406.54,190.75 406.99,192.59 410.30,199.30 C417.29,213.44 427.64,220.67 442.29,221.66 C449.30,222.13 451.23,221.89 455.50,220.03 C458.25,218.84 461.96,216.74 463.75,215.37 C468.04,212.10 469.40,213.07 468.61,218.82 C467.30,228.39 463.02,231.00 448.66,231.00 C436.36,231.00 433.09,230.30 431.75,227.36 C430.73,225.11 430.21,225.00 420.84,225.00 L 411.00 225.00 L 411.02 227.75 C411.10,237.87 422.79,247.63 437.64,249.97 C444.47,251.04 459.87,250.50 465.18,248.99 ZM 39.50 222.11 C44.81,219.66 46.25,217.92 56.51,201.50 C61.32,193.80 66.04,186.60 66.99,185.50 C69.34,182.78 77.11,169.74 81.45,161.23 C85.15,153.97 85.90,148.64 84.11,142.37 C81.27,132.48 67.52,128.13 56.40,133.61 C53.19,135.20 50.78,138.36 41.26,153.50 C35.03,163.40 28.59,174.10 26.94,177.28 C25.29,180.46 22.31,185.18 20.32,187.78 C15.44,194.16 13.74,198.53 13.79,204.64 C13.90,218.57 27.36,227.71 39.50,222.11 ZM 101.76 220.77 C104.23,219.14 107.63,215.05 111.07,209.57 C114.06,204.82 120.10,195.35 124.50,188.53 C128.90,181.70 135.42,171.02 138.98,164.81 C144.84,154.58 145.47,152.96 145.47,147.89 C145.47,139.83 141.94,134.97 133.93,131.97 C127.63,129.62 124.98,129.72 117.45,132.58 C113.84,133.95 112.48,135.58 104.95,147.57 C100.30,154.97 94.54,164.06 92.14,167.76 C80.72,185.42 74.05,197.51 73.42,201.70 C72.27,209.36 77.64,219.56 84.45,222.65 C89.03,224.73 97.11,223.85 101.76,220.77 ZM 158.13 222.58 C163.13,220.46 168.65,214.19 170.00,209.09 C171.51,203.36 170.66,199.21 166.91,194.04 C162.87,188.45 158.46,186.71 149.54,187.16 C141.35,187.57 136.65,190.19 134.39,195.62 C132.74,199.56 132.57,208.73 134.07,212.68 C137.41,221.50 149.19,226.35 158.13,222.58 ZM 372.77 218.62 L 378.03 215.95 L 379.00 218.51 C379.97,221.04 380.11,221.07 389.24,220.79 L 398.50 220.50 L 398.50 180.00 L 398.50 139.50 L 389.00 139.50 L 379.50 139.50 L 379.00 166.00 C378.46,194.40 378.39,194.81 372.95,199.39 C370.09,201.79 369.11,202.00 360.67,201.99 C349.74,201.97 347.36,200.97 344.00,194.97 C341.55,190.59 341.49,190.01 341.17,165.81 C340.92,146.83 340.54,140.86 339.52,140.02 C338.72,139.35 334.89,139.03 329.85,139.21 L 321.50 139.50 L 321.50 167.50 C321.50,192.19 321.72,196.18 323.38,201.22 C327.96,215.17 340.20,222.28 358.50,221.62 C365.86,221.36 368.46,220.81 372.77,218.62 ZM 593.28 219.01 C600.52,216.28 606.64,211.67 610.36,206.12 C616.43,197.09 618.65,179.30 615.37,166.06 C612.27,153.57 605.89,146.10 594.68,141.85 C589.35,139.82 586.72,139.50 575.50,139.50 C563.48,139.50 562.07,139.70 556.77,142.18 C541.61,149.29 534.98,160.95 535.02,180.43 C535.07,201.75 546.31,217.01 565.00,221.13 C571.41,222.54 587.01,221.37 593.28,219.01 ZM 236.42 208.50 C238.58,201.90 243.24,187.95 246.79,177.50 C250.34,167.05 254.57,154.34 256.20,149.25 C258.97,140.59 259.33,140.00 261.87,140.00 C264.50,140.00 264.79,140.61 272.24,162.25 C283.17,194.01 290.92,216.14 292.01,218.75 C292.89,220.84 293.58,221.00 301.78,221.00 C306.79,221.00 311.07,220.53 311.69,219.91 C312.47,219.13 311.09,214.01 306.78,201.66 C300.34,183.22 294.41,165.45 291.20,155.00 C290.10,151.43 287.96,145.12 286.44,141.00 C284.92,136.88 282.72,130.80 281.55,127.50 L 279.41 121.50 L 261.86 121.23 L 244.30 120.96 L 242.06 128.73 C240.82,133.00 238.25,141.00 236.35,146.50 C234.44,152.00 230.90,162.35 228.48,169.50 C226.05,176.65 221.14,190.77 217.55,200.88 C213.97,210.98 211.29,219.66 211.60,220.16 C211.91,220.66 216.74,220.94 222.33,220.78 L 232.50 220.50 L 236.42 208.50 ZM 515.77 194.25 L 516.03 168.00 L 521.83 168.00 C530.45,168.00 531.15,167.15 530.79,156.98 L 530.50 148.50 L 524.53 148.19 C517.82,147.85 516.00,146.82 516.00,143.38 C516.00,141.13 516.33,141.00 522.30,141.00 C525.87,141.00 529.12,140.48 529.80,139.80 C531.05,138.55 531.44,127.25 530.37,123.25 C529.84,121.27 529.12,121.00 524.43,121.00 C515.36,121.00 509.19,122.84 504.73,126.86 C496.95,133.87 497.05,133.23 497.02,179.79 L 497.00 221.08 L 506.25 220.79 L 515.50 220.50 L 515.77 194.25 ZM 641.76 215.75 C643.87,212.86 647.73,207.21 650.36,203.19 C652.98,199.17 655.63,196.04 656.26,196.25 C657.39,196.63 665.18,207.88 670.21,216.40 L 672.92 221.00 L 683.90 221.00 C690.66,221.00 695.14,220.59 695.55,219.92 C696.18,218.90 684.04,199.85 674.48,186.86 C672.01,183.52 670.00,180.16 670.00,179.41 C670.00,177.91 673.76,171.76 683.99,156.50 C687.69,151.00 691.44,145.08 692.33,143.35 C694.45,139.23 693.83,139.00 680.53,139.00 L 670.23 139.00 L 668.45 142.74 C666.11,147.68 658.70,159.19 656.91,160.66 C655.76,161.62 654.14,159.81 647.98,150.66 L 640.46 139.50 L 630.05 139.21 C624.32,139.06 619.01,139.17 618.24,139.46 C616.56,140.10 617.05,140.97 631.32,162.50 C636.78,170.75 641.47,178.07 641.74,178.76 C642.00,179.45 640.93,181.70 639.36,183.76 C637.79,185.81 635.56,188.84 634.41,190.50 C633.27,192.15 628.43,199.09 623.66,205.93 C618.90,212.77 615.00,218.95 615.00,219.68 C615.00,220.70 617.64,221.00 626.47,221.00 L 637.94 221.00 L 641.76 215.75 ZM 190.60 181.14 C198.11,175.62 201.02,170.56 200.98,163.10 C200.95,158.70 198.10,152.27 194.85,149.28 C192.23,146.87 185.02,144.00 181.62,144.01 C170.93,144.03 162.04,153.11 162.04,164.00 C162.04,179.12 179.27,189.46 190.60,181.14 ZM 436.50 200.58 C432.56,198.82 428.48,194.40 426.55,189.78 C423.53,182.55 425.23,168.78 429.78,163.66 C432.93,160.11 439.05,158.04 446.50,158.03 C458.89,158.00 463.79,160.25 467.12,167.50 C469.18,172.00 469.66,184.09 468.00,190.04 C466.89,194.07 461.87,199.36 457.68,200.94 C453.75,202.42 440.11,202.19 436.50,200.58 ZM 564.50 200.60 C560.57,198.86 558.55,196.49 555.92,190.55 C551.09,179.62 555.56,162.46 564.04,159.40 C568.41,157.82 581.24,157.66 586.49,159.12 C595.02,161.49 599.72,170.50 598.74,182.64 C598.08,190.82 594.56,196.44 588.02,199.75 C584.48,201.54 581.94,201.99 575.54,201.96 C571.12,201.94 566.15,201.33 564.50,200.60 Z" fill="none"/>
</g>
</svg>